<svg width="148" height="62" viewBox="0 0 148 62" fill="none" xmlns="http://www.w3.org/2000/svg">
<path d="M35.6743 9.1394L25.1678 33.7437L26.6076 37.133L38.8385 9.1394H35.6743Z" fill="url(#paint0_linear_dark)"/>
<path d="M21.5418 48.4989L4.08868 9.1394H0.751648L20.1328 51.9878" fill="#0f171f"/>
<path d="M65.0275 29.4517C67.0024 30.3667 69.4745 31.1099 72.5071 31.7233C81.8172 33.5974 84.101 36.1149 84.101 40.4477V40.5648C84.101 45.2492 79.8847 48.7041 73.7364 48.7041C67.7618 48.7041 63.6261 46.804 59.1654 42.7271L57.8882 45.6224C62.5439 49.5266 67.3755 51.456 73.5606 51.456C81.4664 51.456 87.1452 46.888 87.1452 40.272V40.1547C87.1452 34.1831 83.1645 30.7861 73.6787 28.8543C70.4473 28.1922 68.0486 27.4591 66.2802 26.6158L65.0275 29.4517Z" fill="url(#paint1_linear_dark)"/>
<path d="M85.253 13.5548C81.8244 10.94 78.4696 9.47479 73.8971 9.15326L72.7031 11.8567C76.8031 12.0307 80.389 13.3589 83.9733 16.4522L85.253 13.5548Z" fill="#0f171f"/>
<path d="M137.026 12.8063L135.87 15.5044C142.43 20.5995 144.45 29.7747 140.752 37.786L140.703 37.8931C136.418 47.1755 126.297 51.6171 117.015 47.3327C113.872 45.8821 111.446 43.6775 109.75 41.0505L108.341 44.1616C110.226 46.4425 112.682 48.3911 115.744 49.8049C127.119 55.055 138.919 49.3716 143.65 39.1233C143.727 39.0948 143.727 39.0948 143.699 39.0162C147.764 30.2087 145.601 18.9731 137.026 12.8063Z" fill="#0f171f"/>
<path d="M124.259 9.28978L122.841 12.1449C126.012 11.64 129.358 12.0193 132.603 13.517C132.668 13.5479 134.312 14.4135 134.376 14.4443L135.485 11.7951C135.121 11.6023 134.266 11.1984 133.885 11.0218C131.083 9.72916 128.294 9.255 125.561 9.255C125.125 9.255 124.692 9.26666 124.259 9.28978Z" fill="url(#paint2_linear_dark)"/>
<path d="M144.365 10.1471C142.932 10.1471 141.765 11.314 141.765 12.7478C141.765 14.1815 142.932 15.3487 144.365 15.3487C145.799 15.3487 146.966 14.1815 146.966 12.7478C146.966 11.314 145.799 10.1471 144.365 10.1471ZM144.365 15.6308C142.776 15.6308 141.482 14.3373 141.482 12.7478C141.482 11.1584 142.776 9.86493 144.365 9.86493C145.955 9.86493 147.248 11.1584 147.248 12.7478C147.248 14.3373 145.955 15.6308 144.365 15.6308Z" fill="#0f171f"/>
<path d="M144.486 12.7643C144.952 12.7643 145.299 12.5291 145.299 12.1268V12.1182C145.299 11.7436 145.004 11.5085 144.498 11.5085H143.545V12.7643H144.486ZM143.338 11.3174H144.51C144.852 11.3174 145.127 11.4245 145.295 11.5925C145.426 11.7244 145.507 11.9116 145.507 12.1105V12.1182C145.507 12.5846 145.16 12.8521 144.69 12.9162L145.61 14.1077H145.347L144.458 12.9515H143.545V14.1077H143.338V11.3174Z" fill="#0f171f"/>
<path d="M143.639 12.6702H144.486C144.923 12.6702 145.205 12.4567 145.205 12.1268C145.205 11.7907 144.947 11.6025 144.498 11.6025H143.639V12.6702ZM143.432 14.0138H143.451V11.4146H144.498C145.05 11.4146 145.393 11.6843 145.393 12.1183C145.393 12.3294 145.311 12.5068 145.168 12.6346C145.305 12.5292 145.412 12.3673 145.412 12.1183C145.412 11.9409 145.345 11.776 145.229 11.6588C145.071 11.5015 144.809 11.4114 144.51 11.4114H143.432V14.0138ZM145.393 14.0138H145.418L144.525 12.8583H144.497L144.533 12.8946L145.393 14.0138ZM145.801 14.2018H145.3L144.412 13.0455H143.639V14.2018H143.244V11.2233H144.51C144.864 11.2233 145.166 11.3304 145.361 11.5256C145.513 11.6782 145.6 11.8917 145.6 12.1105C145.6 12.553 145.327 12.8675 144.858 12.98L145.801 14.2018Z" fill="#0f171f"/>
<path d="M49.4899 19.7917V51.3627H46.3673V12.5814L49.4899 19.7917Z" fill="#0f171f"/>
<path d="M49.4899 16.2258V9.14644L46.4844 9.14496L49.4899 16.2258Z" fill="url(#paint3_linear_dark)"/>
<path d="M100.237 19.7917V51.3627H97.1139V12.5814L100.237 19.7917Z" fill="#0f171f"/>
<path d="M100.236 16.2258V9.14644L97.2307 9.14496L100.236 16.2258Z" fill="url(#paint4_linear_dark)"/>
<defs>
<linearGradient id="paint0_linear_dark" x1="25.1676" y1="23.1363" x2="38.8385" y2="23.1363" gradientUnits="userSpaceOnUse">
<stop stop-color="#00A5DB"/>
<stop offset="1" stop-color="#71C27D"/>
</linearGradient>
<linearGradient id="paint1_linear_dark" x1="57.8878" y1="39.036" x2="87.1454" y2="39.036" gradientUnits="userSpaceOnUse">
<stop stop-color="#00A5DB"/>
<stop offset="1" stop-color="#71C27D"/>
</linearGradient>
<linearGradient id="paint2_linear_dark" x1="122.841" y1="11.8495" x2="135.484" y2="11.8495" gradientUnits="userSpaceOnUse">
<stop stop-color="#00A5DB"/>
<stop offset="1" stop-color="#71C27D"/>
</linearGradient>
<linearGradient id="paint3_linear_dark" x1="49.4899" y1="12.6853" x2="46.4839" y2="12.6853" gradientUnits="userSpaceOnUse">
<stop stop-color="#00A5DB"/>
<stop offset="1" stop-color="#71C27D"/>
</linearGradient>
<linearGradient id="paint4_linear_dark" x1="100.237" y1="12.6853" x2="97.2305" y2="12.6853" gradientUnits="userSpaceOnUse">
<stop stop-color="#00A5DB"/>
<stop offset="1" stop-color="#71C27D"/>
</linearGradient>
</defs>
</svg>
